<?xml version="1.0" encoding="UTF-8" standalone="no"?>
<!DOCTYPE svg PUBLIC "-//W3C//DTD SVG 1.1//EN" "http://www.w3.org/Graphics/SVG/1.1/DTD/svg11.dtd">
<!-- Created with Vectornator (http://vectornator.io/) -->
<svg height="100%" stroke-miterlimit="10" style="fill-rule:nonzero;clip-rule:evenodd;stroke-linecap:round;stroke-linejoin:round;" version="1.1" viewBox="0 0 1024 1024" width="100%" xml:space="preserve" xmlns="http://www.w3.org/2000/svg" xmlns:vectornator="http://vectornator.io" xmlns:xlink="http://www.w3.org/1999/xlink">
<defs>
<filter color-interpolation-filters="sRGB" filterUnits="userSpaceOnUse" height="0" id="Filter" width="0" x="inf" y="inf">
<feDropShadow dx="-3.67321e-05" dy="10" flood-color="#3c7699" flood-opacity="1" in="SourceGraphic" result="Shadow" stdDeviation="5"/>
</filter>
</defs>
<clipPath id="ArtboardFrame">
<rect height="1024" width="1024" x="0" y="0"/>
</clipPath>
<g clip-path="url(#ArtboardFrame)" id="Untitled" vectornator:layerName="Untitled">
<path d="M355.975 645.433L689.709 646.065C690.665 646.065 691.441 646.84 691.441 647.797L691.441 706.47C691.441 707.426 690.665 708.201 689.709 708.201L355.238 708.201" fill="#e6bc7b" fill-rule="nonzero" opacity="1" stroke="none" vectornator:layerName="path"/>
<path d="M219.43 708.075C219.373 706.304 219.187 699.414 219.139 697.647C211.04 401.125 327.513 177.281 565.228 32.2563C574.04 26.9088 584.886 26.2309 594.301 30.524C603.64 34.8171 610.343 43.4785 612 53.6463C617.875 88.4428 620.662 102.527 621.942 108.101C631.206 120.377 670.747 168.204 818.595 339.098C827.557 349.492 828.687 364.48 821.306 376.079L765.421 464.275C758.115 475.798 744.106 481.221 730.85 477.606L572.986 433.922C567.262 432.416 563.722 432.717 562.442 433.395C560.408 434.675 556.115 440.399 553.102 454.333L552.349 457.421C554.533 459.304 570.35 468.116 581.873 474.518C633.089 503.063 719.189 557.249 717.908 708.561L654.633 708.194L654.864 706.244L655.458 701.599C656.437 587.192 598.292 554.806 551.596 528.821C520.716 511.574 478.312 488 492.999 438.742C498.799 412.005 511.527 391.594 530.206 380.221C541.729 373.216 561.312 366.438 589.33 373.819L715.403 408.762C720.815 410.262 727.637 407.631 730.64 402.886L756.383 362.22C568.467 144.705 566.509 139.206 563.722 130.997C562.969 128.662 561.764 125.197 558.826 110.209C363.831 244.952 272.745 444.841 281.181 707.095C281.181 707.095 219.43 708.075 219.43 708.075Z" fill="#e6bc7b" fill-rule="nonzero" opacity="1" stroke="none" vectornator:layerName="path"/>
<path d="M495.391 273.246C495.391 290.425 509.317 304.352 526.497 304.352C543.676 304.352 557.602 290.425 557.602 273.246C557.602 256.066 543.676 242.14 526.497 242.14C509.317 242.14 495.391 256.066 495.391 273.246Z" fill="#edd4c2" fill-rule="nonzero" opacity="1" stroke="none" vectornator:layerName="path"/>
<g fill="#6bb392" filter="url(#Filter)" stroke="none" vectornator:shadowAngle="1.5708" vectornator:shadowColor="#3c7699" vectornator:shadowOffset="10" vectornator:shadowOpacity="1" vectornator:shadowRadius="10"/>
<g fill="#7edbfe" opacity="1" stroke="none"/>
<g fill="#edd4c2" opacity="1" stroke="none">
<path d="M340.873 835.243L325.798 956.743L303.298 956.743L331.873 774.943L357.523 774.943L374.398 888.343L425.023 774.943L452.023 774.943L425.923 956.743L403.423 956.743L424.348 835.468C424.798 832.918 425.436 829.206 426.261 824.331C427.086 819.456 427.873 814.918 428.623 810.718C426.823 814.768 424.723 819.268 422.323 824.218C419.923 829.168 418.123 832.918 416.923 835.468L377.998 918.718L361.573 918.718L348.073 835.243C347.773 833.443 347.323 830.968 346.723 827.818C346.123 824.668 345.561 821.406 345.036 818.031C344.511 814.656 344.023 811.618 343.573 808.918C343.273 812.518 342.898 816.793 342.448 821.743C341.998 826.693 341.473 831.193 340.873 835.243Z"/>
<path d="M526.948 956.743L521.098 898.468L483.073 898.468L462.823 956.743L438.748 956.743L506.473 774.943L530.323 774.943L550.573 956.743L526.948 956.743ZM500.173 848.743L490.273 877.093L518.848 877.093L516.148 850.993C515.698 847.093 515.248 842.556 514.798 837.381C514.348 832.206 513.936 827.031 513.561 821.856C513.186 816.681 513.073 812.143 513.223 808.243C512.173 812.143 510.861 816.643 509.286 821.743C507.711 826.843 506.098 831.793 504.448 836.593C502.798 841.393 501.373 845.443 500.173 848.743Z"/>
<path d="M585.673 956.743L563.173 956.743L588.598 774.943L623.923 774.943C642.223 774.943 655.648 779.556 664.198 788.781C672.748 798.006 675.898 811.168 673.648 828.268C672.298 838.768 668.773 847.731 663.073 855.156C657.373 862.581 649.986 868.281 640.911 872.256C631.836 876.231 621.598 878.293 610.198 878.443L596.698 878.443L585.673 956.743ZM623.023 796.093L608.173 796.093L599.623 857.293L610.198 857.068C622.648 856.768 631.986 853.956 638.211 848.631C644.436 843.306 648.223 835.543 649.573 825.343C650.773 815.893 649.086 808.656 644.511 803.631C639.936 798.606 632.773 796.093 623.023 796.093Z"/>
<path d="M695.248 956.743L672.748 956.743L698.173 774.943L720.673 774.943L695.248 956.743Z"/>
</g>
</g>
</svg>
