<?xml version="1.0" encoding="UTF-8" standalone="no"?>
<!DOCTYPE svg PUBLIC "-//W3C//DTD SVG 1.1//EN" "http://www.w3.org/Graphics/SVG/1.1/DTD/svg11.dtd">
<!-- Created with Vectornator (http://vectornator.io/) -->
<svg height="100%" stroke-miterlimit="10" style="fill-rule:nonzero;clip-rule:evenodd;stroke-linecap:round;stroke-linejoin:round;" version="1.1" viewBox="0 0 1024 1024" width="100%" xml:space="preserve" xmlns="http://www.w3.org/2000/svg" xmlns:vectornator="http://vectornator.io" xmlns:xlink="http://www.w3.org/1999/xlink">
<defs>
<clipPath id="TextBounds">
<rect height="278.842" transform="matrix(1 0 0 1 235.7 723.562)" width="1059.24" x="0" y="0"/>
</clipPath>
<clipPath id="TextBounds_2">
<rect height="53.5376" transform="matrix(1 0 0 1 290.812 1316.48)" width="297.889" x="0" y="0"/>
</clipPath>
</defs>
<clipPath id="ArtboardFrame">
<rect height="1024" width="1024" x="0" y="0"/>
</clipPath>
<g clip-path="url(#ArtboardFrame)" id="Untitled" vectornator:layerName="Untitled">
<path d="M334.425 674.471L664.314 674.471L664.314 736.608L334.425 736.608L334.425 674.471Z" fill="#66b2f6" fill-rule="nonzero" opacity="1" stroke="none"/>
<path d="M209.851 737.662C200.21 438.503 316.65 212.853 555.782 66.9639C564.594 61.6164 575.44 60.9385 584.854 65.2316C594.194 69.5246 600.897 78.1861 602.554 88.3539C608.429 123.15 611.215 137.235 612.496 142.808C621.76 155.085 661.301 202.911 809.148 373.805C818.111 384.199 819.241 399.187 811.86 410.786L755.975 498.982C748.669 510.506 734.66 515.929 721.404 512.313L563.54 468.63C557.816 467.123 554.276 467.424 552.995 468.102C550.962 469.383 546.669 475.107 543.656 489.04L542.903 492.128C545.087 494.011 560.904 502.823 572.427 509.225C623.643 537.771 709.429 585.522 708.148 736.834L646.012 736.306C646.991 621.9 588.846 589.513 542.15 563.529C511.27 546.281 468.866 522.707 483.553 473.45C489.352 446.712 502.081 426.301 520.76 414.929C532.283 407.924 551.865 401.146 579.883 408.527L715.755 446.185L746.937 396.928C559.021 179.412 557.062 173.914 554.276 165.704C553.522 163.37 552.317 159.905 549.38 144.917C354.384 279.659 263.552 473.375 271.987 735.628C271.987 735.628 209.851 737.662 209.851 737.662Z" fill="#66b2f6" fill-rule="nonzero" opacity="1" stroke="none"/>
<path d="M520.76 301.652C520.76 318.831 534.686 332.758 551.865 332.758C569.045 332.758 582.971 318.831 582.971 301.652C582.971 284.472 569.045 270.546 551.865 270.546C534.686 270.546 520.76 284.472 520.76 301.652Z" fill="#7edbfe" fill-rule="nonzero" opacity="1" stroke="none"/>
<g fill="#7edbfe" opacity="1" stroke="none">
<path clip-path="url(#TextBounds)" d="M391.025 773.28L391.025 953.354L350.094 953.354L350.094 831.784L333.744 953.354L304.714 953.354L287.474 834.565L287.474 953.354L246.543 953.354L246.543 773.28L307.161 773.28C308.94 784.106 310.831 796.86 312.833 811.541L319.284 857.366L329.962 773.28L391.025 773.28Z"/>
<path clip-path="url(#TextBounds)" d="M507.304 773.28L534.109 953.354L486.171 953.354L483.835 920.987L467.04 920.987L464.259 953.354L415.765 953.354L439.567 773.28L507.304 773.28ZM482.5 889.066C480.127 868.674 477.755 843.5 475.382 813.543C470.636 847.949 467.67 873.123 466.484 889.066L482.5 889.066Z"/>
<path clip-path="url(#TextBounds)" d="M558.738 773.28L605.897 773.28C618.651 773.28 628.458 774.281 635.317 776.283C642.176 778.285 647.329 781.177 650.777 784.958C654.225 788.74 656.561 793.319 657.784 798.695C659.008 804.071 659.619 812.394 659.619 823.665L659.619 839.348C659.619 850.841 658.433 859.22 656.06 864.485C653.687 869.749 649.331 873.791 642.991 876.608C636.651 879.426 628.365 880.835 618.132 880.835L605.564 880.835L605.564 953.354L558.738 953.354L558.738 773.28ZM605.564 804.089L605.564 849.914C606.899 849.988 608.048 850.025 609.012 850.025C613.313 850.025 616.297 848.969 617.965 846.856C619.634 844.742 620.468 840.349 620.468 833.675L620.468 818.882C620.468 812.728 619.504 808.724 617.576 806.87C615.648 805.016 611.644 804.089 605.564 804.089Z"/>
<path clip-path="url(#TextBounds)" d="M736.524 773.28L736.524 953.354L689.698 953.354L689.698 773.28L736.524 773.28Z"/>
</g>
<g fill="#7edbfe" opacity="1" stroke="none"/>
</g>
</svg>
