<?xml version="1.0" encoding="UTF-8" standalone="no"?>
<!DOCTYPE svg PUBLIC "-//W3C//DTD SVG 1.1//EN" "http://www.w3.org/Graphics/SVG/1.1/DTD/svg11.dtd">
<!-- Created with Vectornator (http://vectornator.io/) -->
<svg height="100%" stroke-miterlimit="10" style="fill-rule:nonzero;clip-rule:evenodd;stroke-linecap:round;stroke-linejoin:round;" version="1.1" viewBox="0 0 1024 1024" width="100%" xml:space="preserve" xmlns="http://www.w3.org/2000/svg" xmlns:vectornator="http://vectornator.io" xmlns:xlink="http://www.w3.org/1999/xlink">
<defs>
<clipPath id="TextBounds">
<rect height="278.842" transform="matrix(1 0 0 1 248.808 725.278)" width="528.399" x="0" y="0"/>
</clipPath>
<clipPath id="TextBounds_2">
<rect height="53.5376" transform="matrix(1 0 0 1 290.812 1316.48)" width="297.889" x="0" y="0"/>
</clipPath>
</defs>
<clipPath id="ArtboardFrame">
<rect height="1024" width="1024" x="0" y="0"/>
</clipPath>
<g clip-path="url(#ArtboardFrame)" id="Untitled" vectornator:layerName="Untitled">
<path d="M348.063 674.471L677.952 674.471L677.952 736.608L348.063 736.608L348.063 674.471Z" fill="#66b2f6" fill-rule="nonzero" opacity="1" stroke="none"/>
<path d="M209.851 737.662C200.21 438.503 316.65 212.853 555.782 66.9639C564.594 61.6164 575.44 60.9385 584.854 65.2316C594.194 69.5246 600.897 78.1861 602.554 88.3539C608.429 123.15 611.215 137.235 612.496 142.808C621.76 155.085 661.301 202.911 809.148 373.805C818.111 384.199 819.241 399.187 811.86 410.786L755.975 498.982C748.669 510.506 734.66 515.929 721.404 512.313L563.54 468.63C557.816 467.123 554.276 467.424 552.995 468.102C550.962 469.383 546.669 475.107 543.656 489.04L542.903 492.128C545.087 494.011 560.904 502.823 572.427 509.225C623.643 537.771 709.429 585.522 708.148 736.834L646.012 736.306C646.991 621.9 588.846 589.513 542.15 563.529C511.27 546.281 468.866 522.707 483.553 473.45C489.352 446.712 502.081 426.301 520.76 414.929C532.283 407.924 551.865 401.146 579.883 408.527L715.755 446.185L746.937 396.928C559.021 179.412 557.062 173.914 554.276 165.704C553.522 163.37 552.317 159.905 549.38 144.917C354.384 279.659 263.552 473.375 271.987 735.628C271.987 735.628 209.851 737.662 209.851 737.662Z" fill="#66b2f6" fill-rule="nonzero" opacity="1" stroke="none"/>
<path d="M481.902 301.652C481.902 318.831 495.828 332.758 513.008 332.758C530.187 332.758 544.114 318.831 544.114 301.652C544.114 284.472 530.187 270.546 513.008 270.546C495.828 270.546 481.902 284.472 481.902 301.652Z" fill="#7edbfe" fill-rule="nonzero" opacity="1" stroke="none"/>
<g fill="#7edbfe" opacity="1" stroke="none">
<path clip-path="url(#TextBounds)" d="M404.133 774.995L404.133 955.07L363.202 955.07L363.202 833.5L346.852 955.07L317.822 955.07L300.582 836.281L300.582 955.07L259.651 955.07L259.651 774.995L320.269 774.995C322.049 785.821 323.939 798.575 325.941 813.257L332.393 859.082L343.07 774.995L404.133 774.995Z"/>
<path clip-path="url(#TextBounds)" d="M520.412 774.995L547.217 955.07L499.279 955.07L496.943 922.703L480.148 922.703L477.368 955.07L428.873 955.07L452.675 774.995L520.412 774.995ZM495.609 890.781C493.236 870.39 490.863 845.216 488.49 815.259C483.744 849.665 480.778 874.839 479.592 890.781L495.609 890.781Z"/>
<path clip-path="url(#TextBounds)" d="M571.846 774.995L619.006 774.995C631.76 774.995 641.566 775.996 648.425 777.999C655.284 780.001 660.437 782.892 663.885 786.674C667.333 790.456 669.669 795.035 670.892 800.411C672.116 805.786 672.728 814.11 672.728 825.381L672.728 841.063C672.728 852.557 671.541 860.936 669.168 866.2C666.796 871.465 662.439 875.506 656.099 878.324C649.76 881.142 641.473 882.551 631.241 882.551L618.672 882.551L618.672 955.07L571.846 955.07L571.846 774.995ZM618.672 805.805L618.672 851.63C620.007 851.704 621.156 851.741 622.12 851.741C626.421 851.741 629.405 850.684 631.074 848.571C632.742 846.458 633.576 842.065 633.576 835.391L633.576 820.598C633.576 814.443 632.612 810.439 630.684 808.586C628.756 806.732 624.752 805.805 618.672 805.805Z"/>
<path clip-path="url(#TextBounds)" d="M749.633 774.995L749.633 955.07L702.807 955.07L702.807 774.995L749.633 774.995Z"/>
</g>
<g fill="#7edbfe" opacity="1" stroke="none"/>
</g>
</svg>
